<svg width="32" height="32" viewBox="0 0 32 32" fill="none" xmlns="http://www.w3.org/2000/svg">
<path d="M24.52 13.32C24.52 18.8534 19.12 25.5067 16.92 27.9867C16.4266 28.5334 15.5733 28.5334 15.08 27.9867C12.88 25.5067 7.47998 18.8534 7.47998 13.32C7.47998 8.61338 11.2933 4.80005 16 4.80005C20.7066 4.80005 24.52 8.61338 24.52 13.32Z" fill="#273A69"/>
<path d="M15.9866 16.7334C17.8718 16.7334 19.4 15.2052 19.4 13.3201C19.4 11.4349 17.8718 9.90674 15.9866 9.90674C14.1015 9.90674 12.5733 11.4349 12.5733 13.3201C12.5733 15.2052 14.1015 16.7334 15.9866 16.7334Z" fill="white"/>
</svg>
