<svg xmlns="http://www.w3.org/2000/svg" xmlns:xlink="http://www.w3.org/1999/xlink" width="377" zoomAndPan="magnify" viewBox="0 0 282.96 184.500001" height="245" preserveAspectRatio="xMidYMid meet" version="1.0"><defs><filter x="0%" y="0%" width="100%" height="100%" id="c366c2158a"><feColorMatrix values="0 0 0 0 1 0 0 0 0 1 0 0 0 0 1 0 0 0 1 0" color-interpolation-filters="sRGB"/></filter><g/><clipPath id="05b85ad43b"><path d="M 17 46 L 228 46 L 228 170 L 17 170 Z M 17 46 " clip-rule="nonzero"/></clipPath><clipPath id="ad126650d6"><path d="M 15.789062 127.847656 L 209.644531 41.902344 L 230.222656 88.316406 L 36.371094 174.261719 Z M 15.789062 127.847656 " clip-rule="nonzero"/></clipPath><clipPath id="8fb185ca67"><path d="M 15.789062 127.847656 L 209.644531 41.902344 L 230.222656 88.316406 L 36.371094 174.261719 Z M 15.789062 127.847656 " clip-rule="nonzero"/></clipPath><clipPath id="2c80310ab5"><path d="M 0.363281 0 L 282.558594 0 L 282.558594 183.675781 L 0.363281 183.675781 Z M 0.363281 0 " clip-rule="nonzero"/></clipPath><mask id="d46c191d4a"><g filter="url(#c366c2158a)"><rect x="-28.296" width="339.552" fill="#000000" y="-18.45" height="221.400001" fill-opacity="0.8471"/></g></mask><clipPath id="190743c238"><path d="M 0.00390625 0.589844 L 192.921875 0.589844 L 192.921875 131.753906 L 0.00390625 131.753906 Z M 0.00390625 0.589844 " clip-rule="nonzero"/></clipPath><clipPath id="14a4005f00"><rect x="0" width="193" y="0" height="132"/></clipPath><clipPath id="e689a90193"><path d="M 59 90 L 171 90 L 171 131 L 59 131 Z M 59 90 " clip-rule="nonzero"/></clipPath><clipPath id="a1c820e93b"><path d="M 33.113281 109.277344 L 175.167969 89.992188 L 182 140.300781 L 39.945312 159.589844 Z M 33.113281 109.277344 " clip-rule="nonzero"/></clipPath><clipPath id="713093bbb8"><path d="M 33.113281 109.277344 L 175.167969 89.992188 L 182 140.300781 L 39.945312 159.589844 Z M 33.113281 109.277344 " clip-rule="nonzero"/></clipPath><clipPath id="9395af758c"><path d="M 54 99 L 177 99 L 177 147 L 54 147 Z M 54 99 " clip-rule="nonzero"/></clipPath><clipPath id="705c04e0f4"><path d="M 33.113281 109.277344 L 175.167969 89.992188 L 182 140.300781 L 39.945312 159.589844 Z M 33.113281 109.277344 " clip-rule="nonzero"/></clipPath><clipPath id="8cd89de6a7"><path d="M 33.113281 109.277344 L 175.167969 89.992188 L 182 140.300781 L 39.945312 159.589844 Z M 33.113281 109.277344 " clip-rule="nonzero"/></clipPath><clipPath id="61dbc61186"><path d="M 50.332031 116.105469 L 176.410156 98.988281 L 180.597656 129.824219 L 54.519531 146.941406 Z M 50.332031 116.105469 " clip-rule="nonzero"/></clipPath><clipPath id="c665ba7850"><path d="M 50.332031 116.105469 L 176.394531 98.992188 L 180.582031 129.828125 L 54.519531 146.941406 Z M 50.332031 116.105469 " clip-rule="nonzero"/></clipPath><clipPath id="94fea883c7"><path d="M 71 96 L 174 96 L 174 135 L 71 135 Z M 71 96 " clip-rule="nonzero"/></clipPath><clipPath id="9270cca4e2"><path d="M 33.113281 109.277344 L 175.167969 89.992188 L 182 140.300781 L 39.945312 159.589844 Z M 33.113281 109.277344 " clip-rule="nonzero"/></clipPath><clipPath id="c10387c4ce"><path d="M 33.113281 109.277344 L 175.167969 89.992188 L 182 140.300781 L 39.945312 159.589844 Z M 33.113281 109.277344 " clip-rule="nonzero"/></clipPath><clipPath id="3385a3e3d9"><path d="M 39 101 L 175 101 L 175 159 L 39 159 Z M 39 101 " clip-rule="nonzero"/></clipPath><clipPath id="80772fb85b"><path d="M 33.113281 109.277344 L 175.167969 89.992188 L 182 140.300781 L 39.945312 159.589844 Z M 33.113281 109.277344 " clip-rule="nonzero"/></clipPath><clipPath id="832ef674e3"><path d="M 33.113281 109.277344 L 175.167969 89.992188 L 182 140.300781 L 39.945312 159.589844 Z M 33.113281 109.277344 " clip-rule="nonzero"/></clipPath><clipPath id="ca03098bca"><path d="M 34.566406 119.96875 L 174.355469 100.992188 L 179.730469 140.582031 L 39.941406 159.558594 Z M 34.566406 119.96875 " clip-rule="nonzero"/></clipPath><clipPath id="a6e0813c48"><path d="M 34.566406 119.96875 L 174.355469 100.992188 L 179.726562 140.558594 L 39.9375 159.539062 Z M 34.566406 119.96875 " clip-rule="nonzero"/></clipPath><clipPath id="1546eea4f1"><path d="M 137 63 L 147 63 L 147 77 L 137 77 Z M 137 63 " clip-rule="nonzero"/></clipPath><clipPath id="5376ec5d2d"><path d="M 141.96875 63.730469 L 146.769531 74.667969 L 141.984375 76.769531 L 137.179688 65.832031 Z M 141.96875 63.730469 " clip-rule="nonzero"/></clipPath><clipPath id="79d186ab92"><path d="M 61 105 L 68 105 L 68 113 L 61 113 Z M 61 105 " clip-rule="nonzero"/></clipPath><clipPath id="d8afdb2d96"><path d="M 65.207031 105.867188 L 67.257812 110.675781 L 63.820312 112.140625 L 61.773438 107.332031 Z M 65.207031 105.867188 " clip-rule="nonzero"/></clipPath></defs><g clip-path="url(#05b85ad43b)"><g clip-path="url(#ad126650d6)"><g clip-path="url(#8fb185ca67)"><path fill="#273a69" d="M 30.640625 121.257812 L 26.609375 123.175781 L 28.695312 127.875 L 17.941406 132.640625 L 20.183594 137.695312 L 31.375 132.734375 L 32.371094 134.410156 C 36.167969 141.53125 39.425781 149.066406 42.496094 157.246094 L 43.09375 159.152344 L 31.894531 164.117188 L 34.136719 169.167969 L 44.886719 164.402344 L 47.050781 169.277344 L 51.21875 167.671875 L 55.207031 165.664062 L 53.042969 160.785156 L 63.238281 156.265625 L 65.398438 161.144531 L 69.566406 159.539062 L 73.554688 157.527344 L 71.390625 152.652344 L 81.585938 148.132812 L 83.746094 153.007812 L 87.914062 151.402344 L 91.902344 149.394531 L 89.738281 144.515625 L 99.933594 139.996094 L 102.09375 144.875 L 106.261719 143.269531 L 110.25 141.257812 L 108.089844 136.382812 L 118.28125 131.863281 L 120.445312 136.738281 L 124.609375 135.132812 L 128.597656 133.125 L 126.4375 128.246094 L 136.628906 123.726562 L 138.792969 128.605469 L 142.960938 127 L 146.945312 124.988281 L 144.785156 120.113281 L 154.976562 115.59375 L 157.140625 120.472656 L 161.308594 118.863281 L 165.296875 116.855469 L 163.132812 111.976562 L 173.328125 107.457031 L 175.488281 112.335938 L 179.652344 110.730469 L 183.644531 108.71875 L 181.480469 103.84375 L 191.671875 99.324219 L 193.835938 104.203125 L 198.003906 102.59375 L 201.988281 100.585938 L 199.828125 95.707031 L 210.019531 91.191406 L 212.183594 96.066406 L 216.351562 94.460938 L 220.339844 92.449219 L 218.175781 87.574219 L 227.925781 83.25 L 225.683594 78.199219 L 215.492188 82.71875 L 214.480469 80.996094 C 210.480469 73.230469 207.085938 65.753906 204.359375 58.160156 L 203.785156 56.296875 L 213.972656 51.777344 L 211.730469 46.726562 L 201.984375 51.046875 L 199.898438 46.347656 L 195.773438 48.046875 L 191.742188 49.960938 L 193.828125 54.664062 L 183.632812 59.183594 L 181.550781 54.480469 L 177.425781 56.179688 L 173.394531 58.097656 L 175.480469 62.796875 L 165.285156 67.316406 L 163.203125 62.617188 L 159.074219 64.316406 L 155.046875 66.230469 L 157.132812 70.933594 L 146.941406 75.449219 L 144.855469 70.75 L 140.730469 72.449219 L 136.699219 74.367188 L 138.78125 79.066406 L 128.589844 83.585938 L 126.503906 78.886719 L 122.382812 80.582031 L 118.351562 82.5 L 120.433594 87.203125 L 110.242188 91.71875 L 108.15625 87.019531 L 104.03125 88.71875 L 100.003906 90.632812 L 102.089844 95.335938 L 91.894531 99.855469 L 89.8125 95.152344 L 85.683594 96.851562 L 81.652344 98.769531 L 83.738281 103.472656 L 73.546875 107.992188 L 71.460938 103.289062 L 67.335938 104.988281 L 63.308594 106.90625 L 65.390625 111.605469 L 55.199219 116.125 L 53.113281 111.421875 L 48.988281 113.121094 L 44.960938 115.039062 L 47.042969 119.738281 L 36.851562 124.257812 L 34.765625 119.558594 Z M 38.648438 129.507812 L 49.726562 124.597656 L 50.71875 126.277344 C 54.515625 133.394531 57.773438 140.929688 60.84375 149.113281 L 61.441406 151.015625 L 50.359375 155.929688 L 49.347656 154.207031 C 45.347656 146.441406 41.949219 138.964844 39.222656 131.375 L 38.652344 129.507812 Z M 56.996094 121.375 L 68.074219 116.464844 L 69.070312 118.140625 C 72.867188 125.261719 76.125 132.796875 79.195312 140.976562 L 79.792969 142.878906 L 68.707031 147.796875 L 67.695312 146.074219 C 63.695312 138.308594 60.296875 130.832031 57.570312 123.238281 Z M 75.34375 113.238281 L 86.421875 108.328125 L 87.417969 110.007812 C 91.214844 117.125 94.472656 124.660156 97.542969 132.839844 L 98.140625 134.746094 L 87.054688 139.660156 L 86.046875 137.9375 C 82.046875 130.171875 78.648438 122.695312 75.921875 115.101562 L 75.347656 113.238281 Z M 93.695312 105.101562 L 104.769531 100.191406 L 105.765625 101.871094 C 109.5625 108.992188 112.820312 116.527344 115.890625 124.707031 L 116.488281 126.613281 L 105.402344 131.523438 L 104.394531 129.804688 C 100.394531 122.035156 96.996094 114.5625 94.269531 106.96875 Z M 112.042969 96.96875 L 123.117188 92.058594 L 124.113281 93.738281 C 127.910156 100.855469 131.171875 108.390625 134.238281 116.570312 L 134.835938 118.476562 L 123.75 123.390625 L 122.742188 121.667969 C 118.738281 113.902344 115.34375 106.425781 112.617188 98.835938 Z M 130.390625 88.835938 L 141.464844 83.925781 L 142.464844 85.601562 C 146.257812 92.722656 149.519531 100.257812 152.585938 108.4375 L 153.183594 110.339844 L 142.101562 115.253906 L 141.09375 113.535156 C 137.089844 105.765625 133.695312 98.292969 130.96875 90.699219 Z M 148.742188 80.699219 L 159.816406 75.789062 L 160.808594 77.46875 C 164.605469 84.585938 167.867188 92.121094 170.933594 100.300781 L 171.53125 102.207031 L 160.449219 107.121094 L 159.441406 105.398438 C 155.4375 97.632812 152.042969 90.15625 149.316406 82.5625 Z M 167.089844 72.5625 L 178.164062 67.652344 L 179.160156 69.332031 C 182.957031 76.449219 186.214844 83.988281 189.285156 92.167969 L 189.882812 94.070312 L 178.796875 98.988281 L 177.785156 97.265625 C 173.785156 89.496094 170.390625 82.023438 167.664062 74.429688 L 167.089844 72.566406 Z M 185.4375 64.429688 L 196.511719 59.519531 L 197.507812 61.199219 C 201.304688 68.316406 204.5625 75.851562 207.632812 84.03125 L 208.230469 85.9375 L 197.148438 90.851562 L 196.136719 89.128906 C 192.136719 81.363281 188.738281 73.886719 186.011719 66.292969 Z M 185.4375 64.429688 " fill-opacity="1" fill-rule="nonzero"/></g></g></g><g clip-path="url(#2c80310ab5)"><path stroke-linecap="butt" transform="matrix(28.129676, 68.49823, -68.261356, 28.032402, 20.355261, 122.256099)" fill="none" stroke-linejoin="miter" d="M 0.0000224662 0.0000062139 L 1.341233 0.0000247521 " stroke="#ffffff" stroke-width="1" stroke-opacity="1" stroke-miterlimit="4"/></g><path stroke-linecap="butt" transform="matrix(2.737427, -1.223025, 1.285232, 2.876662, 75.200945, 138.192497)" fill="none" stroke-linejoin="miter" d="M -0.00037724 -0.000539615 L 26.151801 -0.000404986 " stroke="#ffffff" stroke-width="1" stroke-opacity="1" stroke-miterlimit="4"/><path stroke-linecap="butt" transform="matrix(-3.594302, -8.281393, 8.41635, -3.652876, 160.120264, 65.493895)" fill="none" stroke-linejoin="miter" d="M 0.000136916 0.000157035 L 2.233176 0.0000231856 " stroke="#273a69" stroke-width="1" stroke-opacity="1" stroke-miterlimit="4"/><g fill="#b3b7c3" fill-opacity="1"><g transform="translate(166.369372, 142.424493)"><g><path d="M 12.96875 -9.824219 C 13.519531 -9.832031 13.949219 -10.292969 13.9375 -10.828125 C 13.925781 -11.367188 13.480469 -11.808594 12.929688 -11.796875 C 12.394531 -11.785156 11.964844 -11.328125 11.976562 -10.789062 C 11.988281 -10.253906 12.433594 -9.8125 12.96875 -9.824219 Z M 10.277344 -4.832031 L 10.253906 -6.023438 C 10.246094 -6.5 9.789062 -6.753906 9.386719 -6.484375 L 7.652344 -5.320312 C 8.160156 -5.328125 8.222656 -5.097656 8.238281 -4.371094 L 8.304688 -0.828125 C 8.316406 -0.40625 8.273438 -0.21875 8.015625 -0.15625 L 5.648438 -0.109375 C 0.667969 -0.0117188 0.890625 -2.078125 0.890625 -2.078125 C 0.890625 -2.078125 -0.0195312 2.0625 5.6875 1.953125 L 7.707031 1.914062 C 8.023438 1.90625 8.328125 1.757812 8.554688 1.535156 L 10.335938 -0.199219 L 17.816406 -0.34375 C 17.816406 -0.34375 18.191406 -1.121094 18.515625 -2.480469 C 19.882812 -8.199219 14.152344 -9.46875 10.277344 -4.832031 Z M 16.539062 -2.382812 L 10.339844 -2.261719 L 10.304688 -3.335938 C 13.871094 -6.820312 17.371094 -6.800781 16.539062 -2.382812 Z M 16.539062 -2.382812 "/></g></g></g><g fill="#b3b7c3" fill-opacity="1"><g transform="translate(186.040799, 142.043838)"><g><path d="M 3.632812 -2.132812 L 3.023438 -2.121094 L 2.832031 -11.9375 C 2.824219 -12.414062 2.371094 -12.652344 1.96875 -12.382812 L 0.21875 -11.230469 C 0.726562 -11.242188 0.804688 -11.011719 0.816406 -10.285156 L 1.015625 -0.0195312 L 3.964844 -0.078125 Z M 3.632812 -2.132812 "/></g></g></g><g fill="#b3b7c3" fill-opacity="1"><g transform="translate(189.713763, 141.972764)"><g><path d="M 0.0859375 0 L 4.457031 -0.0859375 C 4.71875 -0.0898438 4.964844 -0.199219 5.148438 -0.390625 L 6.886719 -2.195312 L 6.816406 -5.839844 C 6.804688 -6.320312 6.351562 -6.558594 5.949219 -6.289062 L 4.199219 -5.136719 C 4.707031 -5.144531 4.785156 -4.914062 4.800781 -4.1875 L 4.839844 -2.15625 L -1.347656 -2.035156 L -0.917969 -0.882812 C -0.71875 -0.335938 -0.320312 0.0078125 0.0859375 0 Z M 2.339844 3.917969 C 2.894531 3.910156 3.320312 3.449219 3.308594 2.914062 C 3.300781 2.375 2.855469 1.933594 2.304688 1.945312 C 1.765625 1.957031 1.339844 2.414062 1.351562 2.953125 C 1.359375 3.488281 1.804688 3.929688 2.339844 3.917969 Z M 4.808594 3.871094 C 5.363281 3.863281 5.789062 3.402344 5.777344 2.867188 C 5.769531 2.328125 5.324219 1.886719 4.773438 1.898438 C 4.234375 1.90625 3.808594 2.367188 3.816406 2.902344 C 3.828125 3.441406 4.273438 3.882812 4.808594 3.871094 Z M 4.808594 3.871094 "/></g></g></g><g fill="#b3b7c3" fill-opacity="1"><g transform="translate(197.654924, 141.819097)"><g><path d="M -0.9375 4.144531 C -0.9375 4.144531 3.160156 3.453125 3.09375 -0.0585938 L 3.085938 -0.363281 C 3.335938 -0.152344 3.761719 -0.0742188 4.023438 -0.078125 L 4.398438 -0.0859375 L 4.070312 -2.140625 C 3.359375 -2.128906 3.050781 -2.308594 3.03125 -3.167969 L 2.980469 -5.839844 C 2.972656 -6.316406 2.515625 -6.554688 2.113281 -6.285156 L 0.367188 -5.132812 C 0.875 -5.144531 0.949219 -4.914062 0.964844 -4.1875 L 1.046875 -0.0195312 C 1.105469 3.015625 -0.9375 4.144531 -0.9375 4.144531 Z M -0.9375 4.144531 "/></g></g></g><g fill="#b3b7c3" fill-opacity="1"><g transform="translate(201.763423, 141.739594)"><g><path d="M 0.101562 -0.00390625 L 1.554688 -0.03125 C 1.871094 -0.0351562 2.175781 -0.171875 2.402344 -0.410156 L 4.070312 -2.140625 L 3.878906 -11.957031 C 3.871094 -12.433594 3.414062 -12.671875 3.011719 -12.402344 L 1.265625 -11.25 C 1.773438 -11.261719 1.847656 -11.03125 1.863281 -10.304688 L 2.023438 -2.101562 L -1.347656 -2.035156 L -0.960938 -0.78125 C -0.804688 -0.289062 -0.40625 0.0078125 0.101562 -0.00390625 Z M 0.101562 -0.00390625 "/></g></g></g><g fill="#b3b7c3" fill-opacity="1"><g transform="translate(206.888153, 141.640427)"><g><path d="M 3.023438 -2.121094 L 2.832031 -11.9375 C 2.824219 -12.414062 2.371094 -12.652344 1.96875 -12.382812 L 0.21875 -11.230469 C 0.726562 -11.242188 0.804688 -11.011719 0.816406 -10.285156 L 0.996094 -1.035156 C 1.027344 0.5625 1.621094 1.246094 3.667969 1.207031 C 2.894531 0.292969 3.042969 -1.074219 3.023438 -2.121094 Z M 3.023438 -2.121094 "/></g></g></g><g fill="#b3b7c3" fill-opacity="1"><g transform="translate(211.083754, 141.55924)"><g/></g></g><g fill="#b3b7c3" fill-opacity="1"><g transform="translate(214.713173, 141.489008)"><g><path d="M -0.9375 4.144531 C -0.9375 4.144531 3.160156 3.453125 3.09375 -0.0585938 L 2.980469 -5.75 C 2.972656 -6.230469 2.519531 -6.46875 2.117188 -6.199219 L 0.367188 -5.046875 C 0.875 -5.058594 0.953125 -4.824219 0.964844 -4.101562 L 1.046875 -0.0195312 C 1.105469 3.015625 -0.9375 4.144531 -0.9375 4.144531 Z M -0.9375 4.144531 "/></g></g></g><g fill="#b3b7c3" fill-opacity="1"><g transform="translate(218.821672, 141.409506)"><g><path d="M 3.632812 -2.132812 L 3.023438 -2.121094 L 2.832031 -11.9375 C 2.824219 -12.414062 2.371094 -12.652344 1.96875 -12.382812 L 0.21875 -11.230469 C 0.726562 -11.242188 0.804688 -11.011719 0.816406 -10.285156 L 1.015625 -0.0195312 L 3.964844 -0.078125 Z M 3.632812 -2.132812 "/></g></g></g><g fill="#b3b7c3" fill-opacity="1"><g transform="translate(222.494637, 141.338431)"><g><path d="M 12.589844 -2.304688 L 11.851562 -2.292969 L 11.863281 -2.351562 C 13.222656 -8.054688 7.53125 -9.324219 3.65625 -4.734375 L 3.515625 -11.949219 C 3.507812 -12.429688 3.050781 -12.667969 2.652344 -12.398438 L 0.902344 -11.246094 C 1.410156 -11.253906 1.484375 -11.023438 1.5 -10.296875 L 1.660156 -2.09375 L -1.347656 -2.035156 L -0.960938 -0.78125 C -0.820312 -0.289062 -0.40625 0.0078125 0.101562 -0.00390625 L 13.066406 -0.253906 Z M 9.890625 -2.253906 L 3.707031 -2.132812 L 3.683594 -3.222656 C 7.234375 -6.691406 10.722656 -6.65625 9.890625 -2.253906 Z M 9.890625 -2.253906 "/></g></g></g><g fill="#b3b7c3" fill-opacity="1"><g transform="translate(235.125003, 141.094025)"><g><path d="M 4.925781 -9.667969 C 5.476562 -9.675781 5.902344 -10.136719 5.894531 -10.671875 C 5.882812 -11.210938 5.4375 -11.652344 4.886719 -11.640625 C 4.351562 -11.632812 3.921875 -11.171875 3.933594 -10.636719 C 3.945312 -10.097656 4.386719 -9.65625 4.925781 -9.667969 Z M 7.394531 -9.714844 C 7.945312 -9.726562 8.371094 -10.183594 8.363281 -10.722656 C 8.351562 -11.257812 7.90625 -11.699219 7.355469 -11.6875 C 6.816406 -11.679688 6.390625 -11.21875 6.402344 -10.683594 C 6.414062 -10.144531 6.855469 -9.703125 7.394531 -9.714844 Z M 0.101562 -0.00390625 L 8.84375 -0.171875 L 8.71875 -6.488281 L 7.109375 -7.980469 C 6.796875 -8.28125 6.386719 -8.402344 5.96875 -8.292969 C 4.132812 -7.777344 2.589844 -6.425781 2.347656 -4.097656 C 2.296875 -3.574219 2.496094 -3.140625 2.804688 -2.886719 L 3.765625 -2.136719 L -1.347656 -2.035156 L -0.960938 -0.78125 C -0.804688 -0.289062 -0.40625 0.0078125 0.101562 -0.00390625 Z M 5.128906 -2.160156 C 4.707031 -2.152344 4.382812 -2.410156 4.375 -2.742188 L 4.367188 -3.324219 C 4.316406 -5.863281 5.726562 -6.574219 6.652344 -6.695312 L 6.742188 -2.191406 Z M 5.128906 -2.160156 "/></g></g></g><g fill="#b3b7c3" fill-opacity="1"><g transform="translate(130.364194, 161.455417)"><g><path d="M 7.15625 -4.59375 C 8.09375 -3.175781 9.019531 -1.894531 9.9375 -0.75 L 9.90625 -0.484375 C 9.15625 -0.203125 8.382812 -0.03125 7.59375 0.03125 L 7.359375 -0.15625 C 6.484375 -1.582031 5.773438 -2.828125 5.234375 -3.890625 L 3.546875 -3.84375 L 3.5625 -3.609375 L 3.734375 -0.078125 L 1.359375 -0.03125 L 1.421875 -3.375 L 1.140625 -11.25 L 5.4375 -11.34375 C 6.613281 -11.363281 7.523438 -11.09375 8.171875 -10.53125 C 8.828125 -9.976562 9.164062 -9.164062 9.1875 -8.09375 C 9.207031 -7.375 9.035156 -6.707031 8.671875 -6.09375 C 8.316406 -5.488281 7.8125 -4.988281 7.15625 -4.59375 Z M 3.546875 -5.6875 L 5.28125 -5.65625 C 6.257812 -6 6.734375 -6.71875 6.703125 -7.8125 C 6.691406 -8.40625 6.523438 -8.84375 6.203125 -9.125 C 5.878906 -9.414062 5.382812 -9.570312 4.71875 -9.59375 L 3.546875 -9.5 Z M 3.546875 -5.6875 "/></g></g></g><g fill="#b3b7c3" fill-opacity="1"><g transform="translate(140.642737, 161.25652)"><g><path d="M 3.328125 -2.890625 L 3.46875 -0.0625 L 1.265625 -0.03125 L 1.3125 -2.640625 L 1.09375 -8.828125 L 3.328125 -8.859375 Z M 3.328125 -2.890625 "/></g></g></g><g fill="#b3b7c3" fill-opacity="1"><g transform="translate(145.503268, 161.162465)"><g><path d="M 5.15625 -2.484375 L 5.296875 -0.109375 L 3.09375 -0.0625 L 3.15625 -2.453125 L 3.140625 -2.890625 L 0.03125 -8.796875 L 2.375 -8.84375 L 2.578125 -8.203125 L 4.125 -5.140625 L 4.25 -5.140625 L 5.8125 -8.171875 L 6.078125 -8.921875 L 8.34375 -8.96875 L 5.171875 -2.96875 Z M 5.15625 -2.484375 "/></g></g></g><g fill="#b3b7c3" fill-opacity="1"><g transform="translate(154.161627, 160.99492)"><g><path d="M 8.78125 -0.171875 L 6.5625 -0.125 L 6.296875 -1.390625 L 6.140625 -1.90625 L 4.359375 -1.875 L 2.796875 -1.8125 L 2.671875 -1.4375 L 2.4375 -0.046875 L 0.296875 0 L 3.203125 -8.859375 L 5.796875 -8.90625 Z M 5.640625 -3.546875 L 4.578125 -6.890625 L 4.4375 -6.890625 L 3.328125 -3.5 L 4.46875 -3.515625 Z M 5.640625 -3.546875 "/></g></g></g><g fill="#b3b7c3" fill-opacity="1"><g transform="translate(163.377466, 160.816588)"><g><path d="M 4.96875 -8.96875 C 6.320312 -9 7.367188 -8.660156 8.109375 -7.953125 C 8.859375 -7.253906 9.242188 -6.242188 9.265625 -4.921875 C 9.296875 -3.367188 8.910156 -2.164062 8.109375 -1.3125 C 7.304688 -0.457031 6.132812 -0.015625 4.59375 0.015625 C 3.707031 0.0351562 2.597656 0.0195312 1.265625 -0.03125 L 1.3125 -2.640625 L 1.09375 -8.828125 Z M 4.96875 -1.65625 C 6.363281 -1.6875 7.046875 -2.585938 7.015625 -4.359375 C 6.992188 -5.390625 6.804688 -6.125 6.453125 -6.5625 C 6.109375 -7.007812 5.566406 -7.222656 4.828125 -7.203125 C 4.273438 -7.191406 3.773438 -7.15625 3.328125 -7.09375 L 3.328125 -2.890625 L 3.390625 -1.75 C 3.660156 -1.726562 3.941406 -1.707031 4.234375 -1.6875 C 4.523438 -1.664062 4.769531 -1.65625 4.96875 -1.65625 Z M 4.96875 -1.65625 "/></g></g></g><g fill="#b3b7c3" fill-opacity="1"><g transform="translate(173.307585, 160.624433)"><g><path d="M 9.109375 -3 L 9.25 -0.171875 L 7.0625 -0.140625 L 7.09375 -2.75 L 7.0625 -3.609375 L 5.09375 -3.578125 L 3.328125 -3.515625 L 3.328125 -2.890625 L 3.46875 -0.0625 L 1.265625 -0.03125 L 1.3125 -2.640625 L 1.09375 -8.828125 L 3.328125 -8.859375 L 3.328125 -5.375 L 5.1875 -5.390625 L 7 -5.4375 L 6.890625 -8.9375 L 9.109375 -8.96875 Z M 9.109375 -3 "/></g></g></g><g fill="#b3b7c3" fill-opacity="1"><g transform="translate(183.830018, 160.420817)"><g/></g></g><g fill="#b3b7c3" fill-opacity="1"><g transform="translate(186.460629, 160.369913)"><g><path d="M 13.046875 -0.25 L 10.953125 -0.21875 L 10.71875 -3.59375 L 10.234375 -7.921875 L 10.046875 -7.921875 L 7.6875 -1.34375 L 5.859375 -1.296875 L 3.4375 -7.78125 L 3.28125 -7.78125 L 2.9375 -3.6875 L 2.75 -0.046875 L 0.765625 -0.015625 L 1.6875 -11.25 L 4.390625 -11.3125 L 4.875 -9.65625 L 6.765625 -4.375 L 6.921875 -4.390625 L 8.6875 -9.734375 L 9.15625 -11.40625 L 11.8125 -11.453125 Z M 13.046875 -0.25 "/></g></g></g><g fill="#b3b7c3" fill-opacity="1"><g transform="translate(200.345365, 160.101234)"><g><path d="M 7.28125 -1.921875 L 7.421875 -1.78125 L 7.296875 -0.140625 L 1.265625 -0.03125 L 1.3125 -2.640625 L 1.09375 -8.828125 L 7.21875 -8.9375 L 7.34375 -8.765625 L 7.234375 -7.140625 L 4.96875 -7.1875 L 3.328125 -7.15625 L 3.328125 -5.375 L 4.890625 -5.390625 L 6.40625 -5.46875 L 6.546875 -5.3125 L 6.4375 -3.65625 L 4.78125 -3.6875 L 3.328125 -3.65625 L 3.328125 -2.890625 L 3.390625 -1.765625 L 4.921875 -1.796875 Z M 7.28125 -1.921875 "/></g></g></g><g fill="#b3b7c3" fill-opacity="1"><g transform="translate(208.289454, 159.94751)"><g><path d="M 7.203125 -8.765625 L 7.109375 -7.09375 L 5.328125 -7.1875 L 4.828125 -7.171875 L 4.859375 -2.921875 L 4.984375 -0.09375 L 2.8125 -0.046875 L 2.84375 -2.671875 L 2.71875 -7.140625 L 2.21875 -7.125 L 0.40625 -6.96875 L 0.265625 -7.140625 L 0.34375 -8.8125 L 7.078125 -8.9375 Z M 7.203125 -8.765625 "/></g></g></g><g fill="#b3b7c3" fill-opacity="1"><g transform="translate(216.059331, 159.797158)"><g><path d="M 6.453125 -3.59375 C 7.253906 -2.488281 7.992188 -1.515625 8.671875 -0.671875 L 8.671875 -0.4375 C 7.953125 -0.195312 7.242188 -0.046875 6.546875 0.015625 L 6.234375 -0.1875 C 5.566406 -1.3125 5.039062 -2.226562 4.65625 -2.9375 L 3.3125 -2.90625 L 3.328125 -2.890625 L 3.46875 -0.0625 L 1.265625 -0.03125 L 1.3125 -2.640625 L 1.09375 -8.828125 L 4.890625 -8.90625 C 5.878906 -8.925781 6.648438 -8.710938 7.203125 -8.265625 C 7.753906 -7.816406 8.035156 -7.171875 8.046875 -6.328125 C 8.054688 -5.773438 7.921875 -5.257812 7.640625 -4.78125 C 7.359375 -4.3125 6.960938 -3.914062 6.453125 -3.59375 Z M 3.328125 -4.578125 L 4.640625 -4.53125 C 5.023438 -4.675781 5.304688 -4.867188 5.484375 -5.109375 C 5.671875 -5.347656 5.765625 -5.660156 5.765625 -6.046875 C 5.753906 -6.460938 5.625 -6.769531 5.375 -6.96875 C 5.125 -7.164062 4.738281 -7.273438 4.21875 -7.296875 L 3.328125 -7.234375 Z M 3.328125 -4.578125 "/></g></g></g><g fill="#b3b7c3" fill-opacity="1"><g transform="translate(225.188069, 159.620511)"><g><path d="M 4.875 -9.03125 C 6.195312 -9.0625 7.226562 -8.703125 7.96875 -7.953125 C 8.707031 -7.210938 9.085938 -6.148438 9.109375 -4.765625 C 9.140625 -3.253906 8.769531 -2.078125 8 -1.234375 C 7.226562 -0.390625 6.128906 0.0390625 4.703125 0.0625 C 3.390625 0.09375 2.363281 -0.269531 1.625 -1.03125 C 0.894531 -1.789062 0.519531 -2.875 0.5 -4.28125 C 0.46875 -5.769531 0.832031 -6.925781 1.59375 -7.75 C 2.351562 -8.582031 3.445312 -9.007812 4.875 -9.03125 Z M 4.71875 -7.25 C 4 -7.238281 3.488281 -7.035156 3.1875 -6.640625 C 2.894531 -6.253906 2.753906 -5.582031 2.765625 -4.625 C 2.785156 -3.863281 2.863281 -3.265625 3 -2.828125 C 3.144531 -2.390625 3.363281 -2.078125 3.65625 -1.890625 C 3.957031 -1.710938 4.359375 -1.628906 4.859375 -1.640625 C 5.597656 -1.648438 6.117188 -1.851562 6.421875 -2.25 C 6.722656 -2.644531 6.863281 -3.320312 6.84375 -4.28125 C 6.820312 -5.050781 6.738281 -5.648438 6.59375 -6.078125 C 6.445312 -6.515625 6.222656 -6.820312 5.921875 -7 C 5.628906 -7.175781 5.226562 -7.257812 4.71875 -7.25 Z M 4.71875 -7.25 "/></g></g></g><path stroke-linecap="butt" transform="matrix(-3.659406, -8.209243, 8.183589, -3.647971, 178.148911, 56.978782)" fill="none" stroke-linejoin="miter" d="M -0.00014997 -0.000124925 L 1.661359 0.00012073 " stroke="#273a69" stroke-width="1" stroke-opacity="1" stroke-miterlimit="4"/><path stroke-linecap="butt" transform="matrix(-3.500283, -8.08017, 8.625912, -3.736695, 196.474526, 48.404896)" fill="none" stroke-linejoin="miter" d="M -0.0000566916 -0.000239747 L 2.120122 0.000137583 " stroke="#273a69" stroke-width="1" stroke-opacity="1" stroke-miterlimit="4"/><g mask="url(#d46c191d4a)"><g transform="matrix(1, 0, 0, 1, 14, 48)"><g clip-path="url(#14a4005f00)"><g clip-path="url(#190743c238)"><path stroke-linecap="butt" transform="matrix(-27.963062, 12.478866, -12.465962, -27.934149, 152.342887, 41.187383)" fill="none" stroke-linejoin="miter" d="M -0.0000241763 -0.0000150052 L 4.193978 0.00000121665 " stroke="#ffffff" stroke-width="1" stroke-opacity="1" stroke-miterlimit="4"/></g></g></g></g><g clip-path="url(#e689a90193)"><g clip-path="url(#a1c820e93b)"><g clip-path="url(#713093bbb8)"><path fill="#50b2cc" d="M 63.640625 123.574219 C 64.503906 122.335938 68.320312 116.996094 71.089844 115 C 71.089844 115 72.804688 114.875 74.066406 115.207031 C 74.597656 115.34375 74.800781 116 74.449219 116.425781 L 68.078125 124.203125 C 67.832031 124.503906 67.496094 124.714844 67.117188 124.808594 C 66.160156 125.042969 64.347656 125.300781 63.617188 124.148438 C 63.503906 123.972656 63.519531 123.746094 63.640625 123.574219 Z M 61.78125 130.9375 C 62.667969 130.960938 63.867188 130.59375 65.457031 129.429688 C 70.242188 125.945312 77.894531 112.574219 89.648438 109.175781 C 101.40625 105.78125 170.636719 90.65625 170.636719 90.65625 L 81.585938 107.589844 C 81.585938 107.589844 72.300781 108.71875 60.269531 127.96875 C 59.492188 129.210938 60.320312 130.894531 61.78125 130.9375 " fill-opacity="1" fill-rule="nonzero"/></g></g></g><g clip-path="url(#9395af758c)"><g clip-path="url(#705c04e0f4)"><g clip-path="url(#8cd89de6a7)"><g clip-path="url(#61dbc61186)"><g clip-path="url(#c665ba7850)"><path fill="#50b2cc" d="M 56.546875 144.296875 L 56.65625 145.476562 C 56.710938 146.066406 57.246094 146.488281 57.828125 146.402344 L 68.589844 144.84375 C 68.886719 144.800781 69.175781 144.71875 69.449219 144.601562 L 176.40625 99.089844 C 176.40625 99.089844 114.035156 120.621094 98.761719 125.53125 C 83.484375 130.441406 76.449219 137.492188 66.417969 141.105469 C 56.386719 144.71875 54.039062 142.84375 54.039062 142.84375 C 54.898438 144.460938 56.546875 144.296875 56.546875 144.296875 " fill-opacity="1" fill-rule="nonzero"/></g></g></g></g></g><g clip-path="url(#94fea883c7)"><g clip-path="url(#9270cca4e2)"><g clip-path="url(#c10387c4ce)"><path fill="#50b2cc" d="M 82.8125 120.988281 C 78.519531 124.433594 73.796875 129.097656 71.492188 134.296875 L 81.816406 129.320312 L 173.550781 96.378906 L 98.746094 113.332031 C 92.925781 114.648438 87.464844 117.25 82.8125 120.988281 " fill-opacity="1" fill-rule="nonzero"/></g></g></g><g clip-path="url(#3385a3e3d9)"><g clip-path="url(#80772fb85b)"><g clip-path="url(#832ef674e3)"><g clip-path="url(#ca03098bca)"><g clip-path="url(#a6e0813c48)"><path fill="#50b2cc" d="M 45.886719 158.730469 L 174.339844 101.085938 L 39.742188 158.082031 Z M 45.886719 158.730469 " fill-opacity="1" fill-rule="nonzero"/></g></g></g></g></g><g fill="#273a69" fill-opacity="1"><g transform="translate(61.723273, 113.753797)"><g><path d="M -0.46875 -9.359375 L -7.59375 -25.28125 L 8.328125 -32.40625 L 19.84375 -28.03125 L 23.421875 -20.046875 L 31.46875 -23.640625 L 35.03125 -15.671875 L 11.0625 -4.953125 Z M 7.5 -12.921875 L 15.453125 -16.484375 L 11.875 -24.46875 L 3.921875 -20.90625 Z M -12.5625 -36.359375 L -4.59375 -39.921875 L -1.015625 -31.9375 L -8.984375 -28.375 Z M -1.5 -41.3125 L 6.453125 -44.859375 L 10.03125 -36.875 L 2.078125 -33.328125 Z M -1.5 -41.3125 "/></g></g></g><g fill="#273a69" fill-opacity="1"><g transform="translate(96.71855, 98.088653)"><g><path d="M 42.515625 -19.03125 L 0 0 L -3.5625 -7.96875 L 38.953125 -27 L 35.375 -34.984375 L 8.84375 -23.109375 L -2.640625 -27.484375 L 6.109375 -50.5625 L 17.390625 -55.625 L 8.609375 -32.53125 L 31.828125 -42.921875 L 43.359375 -38.5625 L 46.9375 -30.578125 Z M 42.515625 -19.03125 "/></g></g></g><g clip-path="url(#1546eea4f1)"><g clip-path="url(#5376ec5d2d)"><path fill="#273a69" d="M 141.964844 63.730469 L 146.769531 74.667969 L 141.984375 76.769531 L 137.179688 65.832031 L 141.964844 63.730469 " fill-opacity="1" fill-rule="nonzero"/></g></g><g clip-path="url(#79d186ab92)"><g clip-path="url(#d8afdb2d96)"><path fill="#ffffff" d="M 65.210938 105.871094 L 67.253906 110.671875 L 63.820312 112.136719 L 61.773438 107.332031 L 65.210938 105.871094 " fill-opacity="1" fill-rule="nonzero"/></g></g></svg>