<svg width="30" height="22" viewBox="0 0 30 22" fill="none" xmlns="http://www.w3.org/2000/svg">
<path d="M29.452 0.0437449C28.2295 0.573093 26.1489 1.56579 25.1034 1.75553C25.0629 1.76516 25.0299 1.77753 24.9909 1.78716C23.7714 0.684462 22.1004 0.00112192 20.2508 0.00112192C16.5233 0.00112192 13.5007 2.77161 13.5007 6.18831C13.5007 6.36842 13.4842 6.69978 13.5007 6.87577C8.67363 6.87577 5.14857 4.56726 2.51003 1.60017C2.15752 1.20144 1.78252 1.40905 1.70451 1.69229C1.52901 2.333 1.46901 3.40407 1.46901 4.16853C1.46901 6.09481 3.11154 7.98671 5.66908 9.15953C5.19807 9.2709 4.67906 9.35065 4.13906 9.35065C3.50304 9.35065 2.77103 9.19803 2.13052 8.89004C1.89352 8.77592 1.38201 8.80755 1.53351 9.36302C2.14102 11.589 4.91307 13.1523 7.38961 13.6074C6.8271 13.9113 5.62708 13.8494 5.07507 13.8494C4.87107 13.8494 4.16156 13.8054 3.70255 13.7532C3.28404 13.7064 2.64053 13.8054 3.17904 14.5534C4.33556 16.1579 6.9516 17.1657 9.20314 17.2042C7.13011 18.6947 3.74005 19.2391 0.492495 19.2391C-0.164516 19.2254 -0.131515 19.9115 0.397993 20.1658C2.79353 21.318 6.7176 22 9.52114 22C20.6663 22 27.0009 14.2138 27.0009 6.8744C27.0009 6.75615 26.9979 6.50867 26.9934 6.2598C26.9934 6.23505 27.0009 6.21168 27.0009 6.18693C27.0009 6.14981 26.9889 6.11406 26.9889 6.07694C26.9844 5.88995 26.9799 5.71533 26.9754 5.62459C27.8589 5.04024 29.212 4.02554 29.896 3.24871C30.1285 2.98472 29.941 2.66436 29.6245 2.76473C28.81 3.02459 27.4014 3.52782 26.5194 3.62406C28.285 2.55299 29.158 1.62079 29.908 0.585467C30.1645 0.23211 29.8435 -0.126746 29.452 0.0437449Z" fill="#50B2CC"/>
</svg>
